<?xml version="1.0" standalone="no"?>
<!DOCTYPE svg PUBLIC "-//W3C//DTD SVG 20010904//EN"
 "http://www.w3.org/TR/2001/REC-SVG-20010904/DTD/svg10.dtd">
<svg version="1.0" xmlns="http://www.w3.org/2000/svg"
 width="500.000000pt" height="500.000000pt" viewBox="0 0 500.000000 500.000000"
 preserveAspectRatio="xMidYMid meet">

<g transform="translate(0.000000,500.000000) scale(0.100000,-0.100000)"
fill="#000000" stroke="none">
<path d="M993 4282 l-373 -217 0 -1768 c0 -1411 3 -1768 13 -1764 6 2 174 99
372 215 l360 210 3 1333 3 1334 372 217 372 217 5 -669 5 -670 375 218 375
217 0 234 0 233 -240 140 c-406 238 -1267 738 -1268 738 -1 0 -170 -98 -374
-218z"/>
<path d="M4000 4256 l-365 -214 -3 -1333 -3 -1334 -372 -217 -372 -217 -5 670
-5 669 -375 -218 -375 -217 0 -234 0 -233 180 -105 c99 -58 438 -256 753 -439
l574 -334 374 217 374 218 0 1767 c0 973 -3 1768 -7 1768 -5 -1 -172 -97 -373
-214z"/>
</g>
</svg>
